<?xml version="1.0" encoding="UTF-8"?> <svg xmlns="http://www.w3.org/2000/svg" id="Ebene_1" viewBox="0 0 941.4597822 425.1968504"><defs><style>.cls-1{fill:#e11423;}</style></defs><path class="cls-1" d="M578.9899306,270.9258767c-6.5876098-3.2041369-11.6897195-7.7219101-15.3033403-13.5533196-3.6151152-5.8299151-5.4817043-12.5325988-5.5952838-20.114029h19.5879767c.2316424,6.2976832,2.4180473,11.3699036,6.5577204,15.2166612,4.1381786,3.8467576,9.9964886,5.7716309,17.5764243,5.7716309,6.8790308,0,12.2710671-1.5138949,16.1790978-4.5461681,3.9050418-3.0307787,5.8583099-7.1719463,5.8583099-12.4190193,0-4.0798944-1.1372893-7.4020942-3.4103733-9.9680937-2.273084-2.5645051-5.1021097-4.6358361-8.4825937-6.2095097-3.3834729-1.5736736-8.1044936-3.3491002-14.166051-5.3337521-7.9311354-2.6810735-14.2841139-5.2171837-19.0634188-7.6083306-4.7822938-2.388158-8.8920776-5.9733839-12.3308458-10.7556777-3.4402626-4.7793049-5.1588995-11.0754936-5.1588995-18.8885662,0-6.2961887,1.7186368-11.9512512,5.1588995-16.9636929,3.4387682-5.0124417,8.221062-8.9488673,14.3423981-11.8062879,6.1213361-2.8559261,13.0287618-4.2861309,20.7237714-4.2861309,7.228736,0,13.8447407,1.488489,19.8510028,4.4609835,6.0032732,2.9724945,10.8438513,7.1704518,14.5157563,12.5923775,3.6733995,5.4219256,5.5668889,11.691214,5.6849518,18.8018871h-19.413124c-.2361258-5.362147-2.2461836-9.7648462-6.034657-13.2051089-3.7899679-3.4372737-8.8322989-5.1588995-15.1284877-5.1588995-5.8314095,0-10.6107144,1.3988209-14.3409036,4.1964628-3.7331781,2.7976419-5.5967783,6.7071671-5.5967783,11.7181144,0,3.8482521,1.1073999,7.0553779,3.3236942,9.6198829,2.2133054,2.5645051,5.0408366,4.6059468,8.4825937,6.1213361,3.4372737,1.5153894,8.0716153,3.2071258,13.9030249,5.0722204,7.9281465,2.6825679,14.3110143,5.2455786,19.1515923,7.6935152,4.8360946,2.4494311,9.0071515,6.1213361,12.5042039,11.0201984,3.4985468,4.8958733,5.247073,11.3101249,5.247073,19.236777,0,6.4142516-1.7485262,12.2157718-5.247073,17.4015717-3.4970524,5.1902833-8.3944201,9.2701777-14.6906089,12.2426722-6.2961887,2.973989-13.5264192,4.4609835-21.6877025,4.4609835-8.7441254,0-16.4122347-1.6035629-22.99835-4.8106887ZM682.0035288,270.9258767c-6.5876098-3.2041369-11.6897195-7.7219101-15.3033403-13.5533196-3.6151152-5.8299151-5.4817043-12.5325988-5.5952838-20.114029h19.5879767c.2316424,6.2976832,2.4180473,11.3699036,6.5577204,15.2166612,4.1381786,3.8467576,9.9964886,5.7716309,17.5764243,5.7716309,6.8790308,0,12.2710671-1.5138949,16.1790978-4.5461681,3.9050418-3.0307787,5.8583099-7.1719463,5.8583099-12.4190193,0-4.0798944-1.1372893-7.4020942-3.4103733-9.9680937-2.273084-2.5645051-5.1021097-4.6358361-8.4825937-6.2095097-3.3834729-1.5736736-8.1044936-3.3491002-14.166051-5.3337521-7.9311354-2.6810735-14.2841139-5.2171837-19.0634188-7.6083306-4.7822938-2.388158-8.8920776-5.9733839-12.3308458-10.7556777-3.4402626-4.7793049-5.1588995-11.0754936-5.1588995-18.8885662,0-6.2961887,1.7186368-11.9512512,5.1588995-16.9636929,3.4387682-5.0124417,8.221062-8.9488673,14.3423981-11.8062879,6.1213361-2.8559261,13.0287618-4.2861309,20.7237714-4.2861309,7.228736,0,13.8447407,1.488489,19.8510028,4.4609835,6.0032732,2.9724945,10.8438513,7.1704518,14.5157563,12.5923775,3.6733995,5.4219256,5.5668889,11.691214,5.6849518,18.8018871h-19.413124c-.2361258-5.362147-2.2461836-9.7648462-6.034657-13.2051089-3.7899679-3.4372737-8.8322989-5.1588995-15.1284877-5.1588995-5.8314095,0-10.6107144,1.3988209-14.3409036,4.1964628-3.7331781,2.7976419-5.5967783,6.7071671-5.5967783,11.7181144,0,3.8482521,1.1073999,7.0553779,3.3236942,9.6198829,2.2133054,2.5645051,5.0408366,4.6059468,8.4825937,6.1213361,3.4372737,1.5153894,8.0716153,3.2071258,13.9030249,5.0722204,7.9281465,2.6825679,14.3110143,5.2455786,19.1515923,7.6935152,4.8360946,2.4494311,9.0071515,6.1213361,12.5042039,11.0201984,3.4985468,4.8958733,5.247073,11.3101249,5.247073,19.236777,0,6.4142516-1.7485262,12.2157718-5.247073,17.4015717-3.4970524,5.1902833-8.3944201,9.2701777-14.6906089,12.2426722-6.2961887,2.973989-13.5264192,4.4609835-21.6877025,4.4609835-8.7441254,0-16.4122347-1.6035629-22.99835-4.8106887ZM785.017127,270.9258767c-6.5876098-3.2041369-11.6897195-7.7219101-15.3033403-13.5533196-3.6151152-5.8299151-5.4817043-12.5325988-5.5952838-20.114029h19.5879767c.2316424,6.2976832,2.4180473,11.3699036,6.5577204,15.2166612,4.1381786,3.8467576,9.9964886,5.7716309,17.5764243,5.7716309,6.8790308,0,12.2710671-1.5138949,16.1790978-4.5461681,3.9050418-3.0307787,5.8583099-7.1719463,5.8583099-12.4190193,0-4.0798944-1.1372893-7.4020942-3.4103733-9.9680937-2.273084-2.5645051-5.1021097-4.6358361-8.4825937-6.2095097-3.3834729-1.5736736-8.1044936-3.3491002-14.166051-5.3337521-7.9311354-2.6810735-14.2841139-5.2171837-19.0634188-7.6083306-4.7822938-2.388158-8.8920776-5.9733839-12.3308458-10.7556777-3.4402626-4.7793049-5.1588995-11.0754936-5.1588995-18.8885662,0-6.2961887,1.7186368-11.9512512,5.1588995-16.9636929,3.4387682-5.0124417,8.221062-8.9488673,14.3423981-11.8062879,6.1213361-2.8559261,13.0287618-4.2861309,20.7237714-4.2861309,7.228736,0,13.8447407,1.488489,19.8510028,4.4609835,6.0032732,2.9724945,10.8438513,7.1704518,14.5157563,12.5923775,3.6733995,5.4219256,5.5668889,11.691214,5.6849518,18.8018871h-19.413124c-.2361258-5.362147-2.2461836-9.7648462-6.034657-13.2051089-3.7899679-3.4372737-8.8322989-5.1588995-15.1284877-5.1588995-5.8314095,0-10.6107144,1.3988209-14.3409036,4.1964628-3.7331781,2.7976419-5.5967783,6.7071671-5.5967783,11.7181144,0,3.8482521,1.1073999,7.0553779,3.3236942,9.6198829,2.2133054,2.5645051,5.0408366,4.6059468,8.4825937,6.1213361,3.4372737,1.5153894,8.0716153,3.2071258,13.9030249,5.0722204,7.9281465,2.6825679,14.3110143,5.2455786,19.1515923,7.6935152,4.8360946,2.4494311,9.0071515,6.1213361,12.5042039,11.0201984,3.4985468,4.8958733,5.247073,11.3101249,5.247073,19.236777,0,6.4142516-1.7485262,12.2157718-5.247073,17.4015717-3.4970524,5.1902833-8.3944201,9.2701777-14.6906089,12.2426722-6.2961887,2.973989-13.5264192,4.4609835-21.6877025,4.4609835-8.7441254,0-16.4122347-1.6035629-22.99835-4.8106887ZM488.8317361,219.5954247h45.9331851v-18.0143031h-45.9331851v-32.3552067h50.0198046v-17.8394505h-69.258076v122.4267222h71.0080967v-18.0143031h-51.7698252v-36.2034588ZM245.1156015,91.8189208v20.8239349l109.046753,45.1683724v49.2209995l-109.046753-45.1685592v20.8232811l109.046753,45.1697735v39.5288058l-109.046753,45.1684658v20.8239349l128.2856165-53.1373497v-135.2843095l-128.2856165-53.1373497ZM220.1041636,312.5538079l-109.0463794-45.168279v-49.2211863l109.0463794,45.1684658v-20.8244019l-109.0463794-45.1672516v-39.5299267l109.0463794-45.1681856v-20.8239349l-128.2852428,53.1371628v135.2843095l128.2852428,53.1371628v-20.8239349Z"></path></svg> 