<?xml version="1.0" encoding="utf-8"?>

<!DOCTYPE svg PUBLIC "-//W3C//DTD SVG 1.1//EN" "http://www.w3.org/Graphics/SVG/1.1/DTD/svg11.dtd">
<svg version="1.1" id="Layer_1" xmlns="http://www.w3.org/2000/svg" xmlns:xlink="http://www.w3.org/1999/xlink" x="0px" y="0px"
	 width="482px" height="125.4px" viewBox="0 0 482 125.4" enable-background="new 0 0 482 125.4" xml:space="preserve">
<g>
	<g>
		<path fill="#D61A0C" d="M409.92,125.4c-2.018-1.328-3.892-2.863-5.591-4.58c16.198-3.828,27.368-18.655,26.58-35.28
			c1.584-0.699,3.093-1.562,4.5-2.569c4.845,18.479-6.21,37.386-24.688,42.229C410.455,125.27,410.188,125.337,409.92,125.4"/>
		<path fill="#D61A0C" d="M435.23,124.7c-3.172-0.568-6.248-1.579-9.14-3c12.686-9.321,17.479-26.032,11.66-40.66
			c1.692-1.565,3.159-3.359,4.359-5.33c11.676,15.113,8.889,36.83-6.224,48.507c-0.217,0.167-0.437,0.332-0.656,0.493V124.7z"/>
		<path fill="#D61A0C" d="M461.76,111.51c-3.864,1.159-7.902,1.634-11.931,1.399c6.676-13.263,4.136-29.307-6.31-39.859
			c1.189-2.635,1.904-5.457,2.11-8.341c17.269,8.155,24.657,28.767,16.503,46.035C462.012,111,461.887,111.256,461.76,111.51z"/>
		<path fill="#D61A0C" d="M481,83.54c-3.265,3.582-7.243,6.44-11.681,8.391c-1.054-13.929-10.385-25.855-23.649-30.23
			c-0.156-3.48-1.045-6.888-2.61-10c19.015-1.898,35.968,11.978,37.866,30.992C480.954,82.974,480.979,83.257,481,83.54"/>
		<path fill="#D61A0C" d="M482,45.37c-0.727,5.611-2.813,10.96-6.08,15.58c-8.293-10.132-21.599-14.712-34.37-11.83
			c-2.26-3.347-5.3-6.094-8.86-8c14.483-12.457,36.323-10.815,48.78,3.669c0.179,0.208,0.355,0.418,0.53,0.631V45.37z"/>
		<path fill="#D61A0C" d="M457.36,10.87c3.403,5.51,5.191,11.864,5.16,18.34c-11.972-2.492-24.369,1.537-32.59,10.59
			c-2.869-1.118-5.921-1.687-9-1.68c-1.55,0.001-3.097,0.144-4.62,0.43c3.418-18.79,21.421-31.251,40.21-27.833
			c0.264,0.048,0.527,0.099,0.79,0.153H457.36z"/>
		<path fill="#D61A0C" d="M412.11,0c7.047,1.918,13.309,6.013,17.891,11.7c-9.712,5.914-15.901,16.219-16.561,27.57
			c-4.988,1.6-9.342,4.736-12.439,8.96c-10.319-16.07-5.657-37.463,10.412-47.782c0.237-0.152,0.477-0.302,0.718-0.448H412.11z"/>
		<path fill="#D61A0C" d="M368.94,26.46c6.92-4.243,15.107-5.927,23.14-4.76c-3.846,18.695,8.192,36.969,26.889,40.815
			c0.673,0.138,1.351,0.257,2.032,0.355c-16.24,10.028-37.535,4.992-47.563-11.249c-4.639-7.512-6.226-16.515-4.437-25.161H368.94z"
			/>
		<path fill="#D61A0C" d="M390.16,118.4c-0.979-1.271-1.872-2.608-2.67-4c17.475,1.738,33.479-9.893,37.221-27.05
			c1.14-0.171,2.266-0.425,3.369-0.76c-1.436,19.05-18.042,33.327-37.092,31.892c-0.275-0.02-0.552-0.045-0.828-0.072V118.4z"/>
		<path fill="#272424" d="M473.29,18.44c3.12,0,5.65,2.53,5.65,5.65s-2.53,5.65-5.65,5.65c-3.119,0-5.649-2.53-5.649-5.65
			C467.656,20.976,470.176,18.456,473.29,18.44 M473.29,19.32c-2.634,0-4.77,2.136-4.77,4.77c0,2.634,2.136,4.77,4.77,4.77
			c2.635,0,4.771-2.136,4.771-4.77c-0.011-2.626-2.134-4.754-4.76-4.77H473.29z M470.55,27.44v-6.5h2.88
			c0.447-0.02,0.894,0.041,1.32,0.18c0.305,0.116,0.56,0.335,0.72,0.62c0.184,0.3,0.277,0.648,0.27,1
			c0.011,0.431-0.151,0.849-0.45,1.16c-0.376,0.355-0.863,0.567-1.38,0.6c0.188,0.084,0.364,0.195,0.521,0.33
			c0.271,0.256,0.51,0.545,0.71,0.86l1.13,1.77h-1.07l-0.859-1.35c-0.25-0.39-0.46-0.69-0.62-0.9
			c-0.123-0.166-0.271-0.311-0.44-0.43c-0.12-0.077-0.252-0.135-0.39-0.17c-0.16-0.015-0.32-0.015-0.48,0h-1v2.89L470.55,27.44z
			 M471.41,23.81h1.841c0.311,0.012,0.621-0.028,0.92-0.12c0.211-0.065,0.392-0.204,0.51-0.39c0.115-0.171,0.175-0.374,0.17-0.58
			c0.005-0.289-0.115-0.566-0.33-0.76c-0.305-0.226-0.682-0.332-1.06-0.3h-2.051V23.81z"/>
		<path fill="#E55A3B" d="M445.22,38.5c-4.314,0.002-8.583,0.876-12.55,2.57c3.56,1.907,6.601,4.653,8.859,8
			c12.772-2.882,26.077,1.698,34.37,11.83c-4.252-13.371-16.68-22.443-30.71-22.42L445.22,38.5z"/>
		<path fill="#E55A3B" d="M469.34,91.91c4.646-17.137-5.48-34.796-22.617-39.443c-1.205-0.326-2.428-0.583-3.663-0.767
			c1.567,3.111,2.457,6.52,2.61,10c13.261,4.383,22.583,16.313,23.63,30.24L469.34,91.91z"/>
		<path fill="#E55A3B" d="M449.85,112.91c12.293-12.812,11.873-33.164-0.939-45.457c-1.03-0.989-2.127-1.909-3.28-2.753
			c-0.206,2.879-0.921,5.7-2.11,8.33c10.445,10.553,12.985,26.597,6.31,39.86L449.85,112.91z"/>
		<path fill="#E55A3B" d="M426.1,121.7c16.521-6.563,24.596-25.277,18.032-41.8c-0.575-1.447-1.254-2.851-2.032-4.2
			c-1.2,1.97-2.667,3.765-4.36,5.33C443.564,95.656,438.781,112.37,426.1,121.7"/>
		<path fill="#E55A3B" d="M404.33,120.82c17.753-0.314,31.891-14.962,31.575-32.715c-0.029-1.722-0.199-3.44-0.505-5.135
			c-1.403,1.01-2.908,1.872-4.49,2.569C431.698,102.165,420.528,116.992,404.33,120.82z"/>
		<path fill="#E55A3B" d="M387.49,114.39c17.132,4.728,34.854-5.328,39.581-22.46c0.483-1.752,0.818-3.542,0.999-5.351
			c-1.1,0.336-2.223,0.59-3.359,0.761C420.968,104.497,404.964,116.127,387.49,114.39z"/>
		<path fill="#E55A3B" d="M443.7,23.14c-11.181,0.023-21.545,5.86-27.359,15.41c1.52-0.286,3.063-0.43,4.609-0.43
			c3.079-0.007,6.131,0.562,9,1.68c8.222-9.053,20.618-13.082,32.59-10.59c-5.483-3.935-12.07-6.035-18.819-6L443.7,23.14z"/>
		<path fill="#E55A3B" d="M430,11.7c-16.478,1.48-29.146,15.217-29.29,31.76c-0.011,1.592,0.097,3.183,0.319,4.76
			c3.09-4.215,7.435-7.344,12.41-8.94C414.092,27.924,420.283,17.614,430,11.7"/>
		<path fill="#E55A3B" d="M392.08,21.7c-10.893,14.022-8.356,34.219,5.665,45.113c0.484,0.376,0.98,0.739,1.485,1.087
			c7.593,0.768,15.227-0.99,21.72-5c-18.888-2.747-31.973-20.286-29.227-39.174C391.822,23.047,391.941,22.372,392.08,21.7"/>
		<path fill="#D61A0C" d="M341.67,83.86c2.124,0.027,4.241-0.225,6.3-0.75c1.621-0.389,3.159-1.066,4.54-2
			c1.144-0.793,2.089-1.84,2.76-3.06c0.618-1.167,0.938-2.47,0.93-3.79c0.024-1.264-0.228-2.516-0.739-3.67
			c-0.472-0.959-1.155-1.798-2-2.45c-0.842-0.65-1.779-1.163-2.78-1.521c-1.03-0.379-2.091-0.67-3.17-0.87
			c-1.09-0.21-2.15-0.38-3.17-0.529c-1.021-0.15-1.95-0.28-2.771-0.45c-0.7-0.108-1.376-0.334-2-0.67
			c-0.444-0.224-0.729-0.673-0.74-1.17c0.011-0.38,0.173-0.74,0.45-1c0.43-0.372,0.945-0.63,1.5-0.75
			c0.904-0.215,1.831-0.312,2.76-0.29c1.384,0,2.763,0.158,4.11,0.47c1.522,0.362,2.986,0.934,4.351,1.7l3.09-7
			c-1.078-0.576-2.215-1.035-3.391-1.37c-1.311-0.378-2.647-0.659-4-0.84c-1.389-0.182-2.789-0.275-4.189-0.28
			c-2.065-0.03-4.124,0.223-6.12,0.75c-1.605,0.406-3.124,1.1-4.48,2.05c-1.148,0.803-2.097,1.86-2.77,3.09
			c-0.621,1.191-0.94,2.517-0.93,3.86c-0.033,1.271,0.22,2.531,0.739,3.69c0.461,0.97,1.147,1.816,2,2.47
			c0.85,0.642,1.79,1.155,2.79,1.52c1.031,0.371,2.093,0.655,3.17,0.851c1.101,0.2,2.16,0.37,3.19,0.5s1.95,0.26,2.78,0.42
			c0.696,0.099,1.372,0.312,2,0.63c0.444,0.208,0.735,0.649,0.75,1.14c0.006,0.4-0.149,0.786-0.431,1.07
			c-0.406,0.359-0.904,0.598-1.439,0.69c-0.902,0.181-1.821,0.262-2.74,0.239c-1.22-0.003-2.438-0.109-3.64-0.319
			c-1.204-0.216-2.389-0.531-3.54-0.94c-1.068-0.374-2.095-0.86-3.061-1.45l-3.09,7.051c1.115,0.661,2.303,1.191,3.54,1.579
			c1.476,0.475,2.987,0.829,4.521,1.061c1.634,0.256,3.285,0.387,4.939,0.39L341.67,83.86z M314.09,54v14.15
			c0.046,1.373-0.213,2.739-0.761,4c-0.417,0.938-1.115,1.72-2,2.24c-0.846,0.481-1.807,0.724-2.779,0.7
			c-0.921,0.032-1.833-0.186-2.641-0.631c-0.761-0.463-1.345-1.167-1.659-2c-0.425-1.176-0.621-2.421-0.58-3.67V54H293.37v16.419
			c-0.031,2.038,0.282,4.067,0.931,6c0.543,1.573,1.431,3.006,2.6,4.19c1.121,1.092,2.47,1.922,3.95,2.43
			c1.61,0.545,3.301,0.813,5,0.79c1.636,0.011,3.259-0.296,4.78-0.899c1.503-0.601,2.851-1.533,3.939-2.73v3.141h9.811V54H314.09z
			 M276.54,83.37h10.301V46.95H276.54V83.37z M253.78,65h-6v-7.93h-10.69v26.3h10.73v-9.91h6.61c2.37,0.015,4.729-0.322,7-1
			c1.936-0.567,3.74-1.513,5.31-2.779c1.446-1.193,2.6-2.701,3.37-4.41c0.803-1.83,1.203-3.812,1.17-5.81
			c0.033-2.015-0.366-4.013-1.17-5.86c-0.773-1.707-1.926-3.215-3.37-4.41c-1.566-1.274-3.372-2.222-5.31-2.79
			c-2.271-0.682-4.63-1.019-7-1h-17.34v8.45h16.69c1.79-0.123,3.565,0.402,5,1.48c1.146,1.05,1.755,2.56,1.66,4.11
			c0.087,1.534-0.522,3.026-1.66,4.06c-1.441,1.063-3.213,1.579-5,1.46V65z"/>
		<path fill="#201E1E" d="M200.79,78.82c-1.437,0.069-2.86-0.312-4.07-1.09c-0.94-0.672-1.487-1.765-1.46-2.92
			c-0.02-0.681,0.153-1.354,0.5-1.94c0.424-0.645,1.05-1.13,1.78-1.38c1.148-0.392,2.358-0.571,3.57-0.53h7v3.36
			c-0.355,0.951-0.927,1.807-1.67,2.5c-0.73,0.668-1.592,1.176-2.53,1.49c-1,0.346-2.052,0.519-3.11,0.51H200.79z M201.71,54.11
			c-1.529,0.001-3.055,0.134-4.56,0.4c-1.421,0.25-2.812,0.649-4.15,1.19c-1.255,0.505-2.436,1.178-3.51,2l2.66,4.93
			c0.771-0.622,1.617-1.143,2.52-1.55c0.965-0.431,1.97-0.766,3-1c1.068-0.228,2.158-0.342,3.25-0.34
			c1.944-0.139,3.87,0.453,5.4,1.66c1.251,1.2,1.909,2.89,1.8,4.62v0.439h-7.48c-1.881-0.036-3.759,0.186-5.58,0.66
			c-1.354,0.351-2.62,0.977-3.72,1.84c-0.912,0.722-1.627,1.66-2.08,2.73c-0.442,1.071-0.664,2.221-0.65,3.38
			c-0.014,1.596,0.449,3.159,1.33,4.49c0.934,1.341,2.222,2.396,3.72,3.05c3.631,1.469,7.686,1.501,11.34,0.09
			c1.439-0.585,2.668-1.588,3.53-2.88v3.521h6.4v-17c0.081-2.397-0.46-4.774-1.57-6.9c-1.015-1.802-2.587-3.226-4.48-4.06
			c-2.249-0.953-4.678-1.41-7.12-1.34L201.71,54.11z M174.34,58.7v-4.22h-6.45v28.93h6.78v-14c-0.059-1.702,0.284-3.395,1-4.939
			c0.632-1.28,1.65-2.33,2.91-3c1.38-0.7,2.913-1.044,4.46-1h0.74c0.26,0,0.53,0.08,0.83,0.13v-6.45
			c-2.13-0.055-4.248,0.334-6.22,1.14c-1.669,0.706-3.089,1.893-4.08,3.41H174.34z M146.76,59.57c1.384-0.017,2.754,0.287,4,0.89
			c1.133,0.576,2.106,1.425,2.83,2.47c0.739,1.102,1.208,2.363,1.37,3.68h-16.43c0.19-1.329,0.686-2.596,1.45-3.7
			c0.728-1.04,1.704-1.882,2.84-2.45C144.047,59.863,145.395,59.558,146.76,59.57 M161.39,69.11c0.017-2.103-0.352-4.191-1.09-6.16
			c-0.676-1.769-1.715-3.377-3.05-4.72c-1.322-1.311-2.902-2.332-4.64-3c-1.865-0.723-3.85-1.086-5.85-1.07
			c-2.051-0.015-4.087,0.358-6,1.1c-1.765,0.701-3.375,1.74-4.74,3.06c-1.345,1.338-2.406,2.933-3.12,4.69
			c-1.5,3.825-1.5,8.075,0,11.9c0.731,1.776,1.828,3.377,3.22,4.7c1.438,1.358,3.14,2.406,5,3.08c2.114,0.755,4.345,1.131,6.59,1.11
			c2.296,0.037,4.578-0.37,6.72-1.2c1.908-0.745,3.602-1.951,4.93-3.51l-3.63-4.171c-0.98,1.024-2.166,1.829-3.48,2.36
			c-1.396,0.538-2.884,0.803-4.38,0.78c-1.536,0.021-3.061-0.271-4.48-0.86c-1.254-0.523-2.36-1.348-3.22-2.399
			c-0.848-1.072-1.421-2.336-1.67-3.681h22.7c0-0.33,0.06-0.68,0.08-1.05c0.02-0.37,0-0.67,0-0.95L161.39,69.11z M113.65,54.11
			c-1.464-0.009-2.922,0.19-4.33,0.59c-1.303,0.364-2.544,0.924-3.68,1.66c-1.078,0.692-2.031,1.561-2.82,2.57
			c-0.648-1.052-1.494-1.969-2.49-2.7c-0.997-0.721-2.115-1.259-3.3-1.59c-1.301-0.368-2.648-0.547-4-0.53
			c-1.852-0.036-3.693,0.304-5.41,1c-1.58,0.655-2.977,1.685-4.07,3v-3.68h-6.42v28.93h6.77V68.7c-0.034-1.658,0.308-3.303,1-4.81
			c0.558-1.21,1.472-2.222,2.62-2.9c1.221-0.682,2.602-1.027,4-1c1.8-0.122,3.559,0.572,4.79,1.89c1.13,1.26,1.7,3.17,1.71,5.75
			v15.71h6.77V68.7c-0.034-1.658,0.308-3.303,1-4.81c0.566-1.212,1.487-2.223,2.64-2.9c1.195-0.674,2.548-1.019,3.92-1
			c1.803-0.125,3.566,0.569,4.8,1.89c1.13,1.26,1.7,3.17,1.71,5.75v15.71h6.77V66.79c0.03-1.922-0.264-3.835-0.87-5.66
			c-0.497-1.502-1.331-2.871-2.44-4c-1.062-1.043-2.343-1.835-3.75-2.32c-1.55-0.516-3.176-0.77-4.81-0.75L113.65,54.11z
			 M61.47,83.37h6.77V54.44h-6.77V83.37z M64.88,49.7c0.79,0.008,1.568-0.189,2.26-0.57c0.633-0.353,1.159-0.872,1.52-1.5
			c0.373-0.658,0.566-1.403,0.56-2.16c0.006-0.708-0.192-1.402-0.57-2c-0.378-0.593-0.906-1.076-1.53-1.4
			c-0.698-0.34-1.464-0.514-2.24-0.51c-0.778-0.006-1.544,0.183-2.23,0.55c-0.63,0.338-1.159,0.839-1.53,1.45
			c-1.137,1.894-0.524,4.351,1.369,5.489c0.053,0.031,0.107,0.062,0.161,0.091c0.686,0.366,1.452,0.556,2.23,0.55V49.7z M45.16,58.7
			v-4.22h-6.45v28.93h6.78v-14c-0.064-1.703,0.279-3.396,1-4.939c0.631-1.278,1.644-2.326,2.9-3c1.381-0.698,2.913-1.042,4.46-1
			h0.75c0.26,0,0.53,0.08,0.83,0.13v-6.45c-2.133-0.054-4.254,0.334-6.23,1.14C47.545,56.001,46.139,57.188,45.16,58.7 M15.3,66.47
			H7.07V54.58H0v28.79h7.05V72.43h8.56c2.955,0.065,5.889-0.496,8.61-1.65c2.274-0.962,4.212-2.577,5.57-4.64
			c2.626-4.455,2.626-9.985,0-14.44c-1.359-2.057-3.297-3.665-5.57-4.62c-2.721-1.15-5.656-1.709-8.61-1.64H0v6h15.3
			c1.77-0.053,3.532,0.253,5.18,0.9c1.291,0.5,2.39,1.396,3.14,2.56c1.414,2.533,1.414,5.617,0,8.15
			c-0.75,1.165-1.849,2.06-3.14,2.56C18.828,66.238,17.067,66.531,15.3,66.47"/>
	</g>
</g>
</svg>
