<?xml version="1.0" encoding="UTF-8"?><svg id="Capa_2" xmlns="http://www.w3.org/2000/svg" viewBox="0 0 1032.55 693.56"><defs><style>.cls-1{fill:#e52424;}.cls-1,.cls-2{stroke-width:0px;}.cls-2{fill:#e52421;}</style></defs><g id="Capa_1-2"><path class="cls-1" d="M707.17,272.62c23.25,6.71,59.28-1.92,84.42,1.29-34.18-57.33-91.52-60.16-152.29-57.1-.08,0-.15.09-.1.16,9.12,13.49,55.81,52.14,67.97,55.65Z"/><path class="cls-2" d="M800.06,0H0l111.04,111.34,219.23,8.33c-27.3-48.03-52.99-59.11-59.79-117.95,76.21-7.1,145.64,15.32,216.02,40.32,17.72,6.3,39.12,23.77,55.54,27.07,76.41,15.35,104.8,2.99,181.6,47.16,26.29,15.12,165.22,126.79,163.13,148.23-.05.48-.17.92-.35,1.32-2.98,6.49.28,13.78,7.42,14,6.27.19,12.45,1.1,18.36,3.81,8.23,3.78,78.27,67.61,83.02,75.81,12.58,21.68,6.51,57.39-19.28,64.42-8.59,2.34-18.38-4.45-19.04-3.74-3.1,3.29-6.66,44.73-28.27,57.73-12.06,7.26-24.23,4.3-35.13,9.35-19.97,9.25-53.9,64.05-89.18,50.63,56.62-46.6,25.75-99.97-22.3-136.69-13.29-10.16-41.32-.11-41.32-.11l-163.18,49.59c-4.41,1.34-7.53,5.39-7.58,10-1.09,111.65,72.61,92.83,104.01,139.19.01,0,.02,0,.04.01l53.96-20.65s.06,0,.07.04c4.92,23.12-13.55,42.8-17.71,61.77-1.92,8.73,6.72,19.78,2.35,27.22-17.7,30.15-173.52,19.09-211.46,8.2-13.71-3.93-45.08-14.87-43.97-22.45,1.53-10.37-31.06-44.48-74.47-51.81-76.43-12.91-133.91,52.02-200.6,91.21l.05.19h843.1c3.99,0,7.22-3.23,7.22-7.22V232.31L800.06,0Z"/></g></svg>